<svg id="Layer_1" data-name="Layer 1" xmlns="http://www.w3.org/2000/svg" viewBox="0 0 122.87 122.88"><title>date-27</title><path d="M81.6,4.73C81.6,2.12,84.18,0,87.37,0s5.77,2.12,5.77,4.73V25.45c0,2.61-2.58,4.73-5.77,4.73s-5.77-2.12-5.77-4.73V4.73ZM27.89,103.41V94.12L41.83,79.88a27.45,27.45,0,0,0,2.23-2.47,11.79,11.79,0,0,0,1.42-2.23A5.22,5.22,0,0,0,46,73a4.09,4.09,0,0,0-.48-2.09A2.74,2.74,0,0,0,44,69.69a7.67,7.67,0,0,0-2.57-.36H28.61V60c2-.44,4.18-.85,6.61-1.23a55.44,55.44,0,0,1,8.48-.58,19.84,19.84,0,0,1,8.35,1.45A8.74,8.74,0,0,1,56.4,64a16.68,16.68,0,0,1,1.29,6.93,17.37,17.37,0,0,1-.78,5.37,17.15,17.15,0,0,1-2.26,4.53A31.37,31.37,0,0,1,51.06,85l-7.73,7.91H58.9v10.49Zm40.24,0L79.84,70.29H63.13V58.59h29L95,63.29,81.16,103.41ZM29.61,4.73C29.61,2.12,32.19,0,35.38,0s5.77,2.12,5.77,4.73V25.45c0,2.61-2.58,4.73-5.77,4.73s-5.77-2.12-5.77-4.73V4.73ZM6.4,38.76H116.46V21.47a3,3,0,0,0-.86-2.07,2.92,2.92,0,0,0-2.07-.86H103a3.2,3.2,0,1,1,0-6.4h10.55a9.36,9.36,0,0,1,9.33,9.33v92.08a9.36,9.36,0,0,1-9.33,9.33H9.33A9.36,9.36,0,0,1,0,113.54V21.47a9.36,9.36,0,0,1,9.33-9.33H20.6a3.2,3.2,0,1,1,0,6.4H9.33a3,3,0,0,0-2.07.86,2.92,2.92,0,0,0-.86,2.07V38.76Zm110.07,6.41H6.4v68.37a3,3,0,0,0,.86,2.07,2.92,2.92,0,0,0,2.07.86H113.54a3,3,0,0,0,2.07-.86,2.92,2.92,0,0,0,.86-2.07V45.17Zm-66-26.63a3.2,3.2,0,0,1,0-6.4H71.91a3.2,3.2,0,1,1,0,6.4Z"/></svg>